<svg fill="#9ca3af"  xmlns="http://www.w3.org/2000/svg" viewBox="0 0 75 74.999997"><defs><clipPath id="5b15604c1f"><path d="M 0 15.886719 L 75 15.886719 L 75 59.386719 L 0 59.386719 Z M 0 15.886719 " clip-rule="nonzero"></path></clipPath></defs><g clip-path="url(#5b15604c1f)"><path d="M 23.574219 20.085938 L 18.472656 15.835938 L 0.558594 37.554688 L 18.472656 59.285156 L 23.574219 55.035156 L 9.167969 37.554688 Z M 21.023438 40.886719 L 27.648438 40.886719 L 27.648438 34.21875 L 21.023438 34.21875 Z M 54.140625 34.21875 L 47.519531 34.21875 L 47.519531 40.886719 L 54.140625 40.886719 Z M 34.269531 40.886719 L 40.894531 40.886719 L 40.894531 34.21875 L 34.269531 34.21875 Z M 56.691406 15.820312 L 51.589844 20.070312 L 65.996094 37.554688 L 51.589844 55.019531 L 56.691406 59.269531 L 74.609375 37.554688 Z M 56.691406 15.820312 " fill-opacity="1" fill-rule="nonzero"></path></g></svg>
