<svg fill="#9ca3af"  xmlns="http://www.w3.org/2000/svg" viewBox="0 0 75 74.999997"><defs><clipPath id="91c330f784"><path d="M 34 61 L 41 61 L 41 67.5 L 34 67.5 Z M 34 61 " clip-rule="nonzero"></path></clipPath><clipPath id="72b6d60d1a"><path d="M 56 7.5 L 64 7.5 L 64 18 L 56 18 Z M 56 7.5 " clip-rule="nonzero"></path></clipPath><clipPath id="103af9cc2f"><path d="M 43 55 L 58 55 L 58 67.5 L 43 67.5 Z M 43 55 " clip-rule="nonzero"></path></clipPath><clipPath id="6114efa34c"><path d="M 11 7.5 L 19 7.5 L 19 18 L 11 18 Z M 11 7.5 " clip-rule="nonzero"></path></clipPath><clipPath id="5cbfc2f080"><path d="M 17 55 L 32 55 L 32 67.5 L 17 67.5 Z M 17 55 " clip-rule="nonzero"></path></clipPath></defs><path d="M 44.902344 26.054688 C 45.164062 26.074219 45.410156 26.171875 45.59375 26.351562 L 47.464844 28.1875 C 47.953125 28.671875 47.953125 29.449219 47.464844 29.933594 L 38.535156 38.957031 L 36.175781 41.285156 C 35.6875 41.769531 34.894531 41.769531 34.40625 41.285156 L 27.589844 34.492188 C 27.105469 34.003906 27.105469 33.214844 27.589844 32.726562 L 29.496094 30.804688 C 29.980469 30.316406 30.765625 30.316406 31.25 30.804688 L 35.304688 34.84375 L 43.679688 26.496094 C 43.992188 26.191406 44.464844 26.019531 44.902344 26.054688 Z M 37.515625 13.652344 C 37.414062 13.652344 37.308594 13.675781 37.222656 13.714844 L 20.4375 20.984375 C 20.070312 21.113281 19.820312 21.464844 19.820312 21.851562 L 19.820312 26.757812 C 19.820312 34.175781 22.03125 40.007812 25.457031 44.222656 C 28.894531 48.445312 32.886719 51.519531 37.527344 54.042969 C 42.179688 51.519531 46.167969 48.453125 49.597656 44.222656 C 53.027344 39.996094 55.238281 34.171875 55.238281 26.757812 L 55.238281 21.851562 C 55.238281 21.457031 54.996094 21.113281 54.617188 20.984375 L 37.832031 13.714844 C 37.722656 13.664062 37.617188 13.648438 37.515625 13.652344 Z M 37.515625 13.652344 " fill-opacity="1" fill-rule="nonzero"></path><path d="M 67.742188 13.433594 C 70.265625 15.808594 71.457031 18.511719 71.320312 20.984375 C 71.183594 23.4375 69.71875 25.59375 67.441406 26.585938 C 65.164062 27.578125 63.148438 27.253906 61.675781 26.015625 C 60.1875 24.761719 59.230469 22.640625 59.238281 19.953125 C 59.238281 19.40625 59.648438 19.339844 59.957031 19.449219 C 61.980469 20.210938 63.65625 20.867188 65.058594 22.171875 C 64.453125 19.082031 65.933594 15.941406 66.894531 13.617188 C 67.058594 13.207031 67.480469 13.191406 67.742188 13.433594 Z M 67.742188 13.433594 " fill-opacity="1" fill-rule="nonzero"></path><path d="M 73.175781 39.628906 C 73.953125 43.003906 73.429688 45.910156 71.941406 47.890625 C 70.464844 49.855469 68.046875 50.832031 65.601562 50.398438 C 63.152344 49.957031 61.65625 48.570312 61.125 46.71875 C 60.585938 44.851562 60.96875 42.554688 62.476562 40.332031 C 62.78125 39.875 63.164062 40.042969 63.351562 40.3125 C 64.605469 42.066406 65.640625 43.539062 66.082031 45.398438 C 67.292969 42.5 70.273438 40.710938 72.363281 39.308594 C 72.738281 39.0625 73.089844 39.28125 73.175781 39.628906 Z M 73.175781 39.628906 " fill-opacity="1" fill-rule="nonzero"></path><path d="M 67.785156 53.0625 C 67.042969 56.441406 65.324219 58.851562 63.128906 60 C 60.957031 61.140625 58.34375 60.988281 56.324219 59.546875 C 54.304688 58.101562 53.546875 56.210938 53.859375 54.316406 C 54.171875 52.398438 55.507812 50.484375 57.824219 49.113281 C 58.296875 48.839844 58.566406 49.152344 58.625 49.476562 C 59.007812 51.601562 59.304688 53.371094 58.902344 55.242188 C 61.242188 53.136719 64.703125 52.800781 67.195312 52.425781 C 67.636719 52.359375 67.863281 52.714844 67.785156 53.0625 Z M 67.785156 53.0625 " fill-opacity="1" fill-rule="nonzero"></path><g clip-path="url(#91c330f784)"><path d="M 40.710938 64.242188 C 40.710938 66 39.285156 67.425781 37.527344 67.425781 C 35.769531 67.425781 34.34375 66 34.34375 64.242188 C 34.34375 62.484375 35.769531 61.0625 37.527344 61.0625 C 39.285156 61.0625 40.710938 62.484375 40.710938 64.242188 Z M 40.710938 64.242188 " fill-opacity="1" fill-rule="evenodd"></path></g><g clip-path="url(#72b6d60d1a)"><path d="M 61.8125 17.820312 C 57.300781 16.398438 56.902344 13.390625 56.902344 8.554688 C 56.902344 7.5625 57.070312 7.460938 57.832031 7.621094 C 62.917969 8.6875 64.960938 13.367188 63.089844 17.375 C 62.78125 18.023438 62.402344 18.003906 61.8125 17.820312 Z M 61.8125 17.820312 " fill-opacity="1" fill-rule="nonzero"></path></g><path d="M 72.457031 25.644531 C 74.398438 28.507812 74.964844 31.410156 74.289062 33.789062 C 73.617188 36.152344 71.714844 37.941406 69.273438 38.410156 C 66.832031 38.878906 64.9375 38.121094 63.773438 36.585938 C 62.601562 35.042969 62.125 32.753906 62.726562 30.136719 C 62.851562 29.605469 63.265625 29.628906 63.542969 29.808594 C 65.34375 30.996094 66.835938 31.996094 67.921875 33.578125 C 68.003906 30.433594 70.140625 27.695312 71.589844 25.632812 C 71.84375 25.269531 72.257812 25.34375 72.457031 25.644531 Z M 72.457031 25.644531 " fill-opacity="1" fill-rule="nonzero"></path><g clip-path="url(#103af9cc2f)"><path d="M 57.820312 63.472656 C 55.578125 66.109375 52.929688 67.433594 50.449219 67.425781 C 47.992188 67.410156 45.761719 66.058594 44.652344 63.839844 C 43.542969 61.621094 43.765625 59.59375 44.925781 58.058594 C 46.105469 56.515625 48.183594 55.445312 50.867188 55.320312 C 51.414062 55.296875 51.507812 55.703125 51.40625 56.011719 C 50.75 58.070312 50.179688 59.777344 48.949219 61.238281 C 52 60.472656 55.21875 61.800781 57.597656 62.628906 C 58.019531 62.78125 58.050781 63.195312 57.820312 63.472656 Z M 57.820312 63.472656 " fill-opacity="1" fill-rule="nonzero"></path></g><path d="M 7.316406 13.433594 C 4.789062 15.808594 3.605469 18.511719 3.738281 20.984375 C 3.875 23.4375 5.335938 25.59375 7.621094 26.585938 C 9.898438 27.578125 11.914062 27.253906 13.382812 26.015625 C 14.867188 24.761719 15.832031 22.640625 15.816406 19.953125 C 15.816406 19.40625 15.40625 19.339844 15.101562 19.449219 C 13.078125 20.210938 11.402344 20.867188 10 22.171875 C 10.609375 19.082031 9.121094 15.941406 8.167969 13.617188 C 8 13.207031 7.574219 13.191406 7.316406 13.433594 Z M 7.316406 13.433594 " fill-opacity="1" fill-rule="nonzero"></path><path d="M 1.882812 39.628906 C 1.109375 43.003906 1.628906 45.910156 3.113281 47.890625 C 4.59375 49.855469 7.015625 50.832031 9.460938 50.398438 C 11.90625 49.957031 13.398438 48.570312 13.933594 46.71875 C 14.472656 44.851562 14.089844 42.554688 12.582031 40.332031 C 12.277344 39.875 11.898438 40.042969 11.703125 40.3125 C 10.449219 42.066406 9.417969 43.539062 8.984375 45.398438 C 7.769531 42.5 4.785156 40.710938 2.691406 39.308594 C 2.324219 39.0625 1.964844 39.28125 1.882812 39.628906 Z M 1.882812 39.628906 " fill-opacity="1" fill-rule="nonzero"></path><path d="M 7.269531 53.0625 C 8.015625 56.441406 9.738281 58.851562 11.925781 60 C 14.109375 61.140625 16.714844 60.988281 18.734375 59.546875 C 20.757812 58.101562 21.511719 56.210938 21.199219 54.316406 C 20.886719 52.398438 19.554688 50.484375 17.238281 49.113281 C 16.765625 48.839844 16.496094 49.152344 16.4375 49.476562 C 16.054688 51.601562 15.753906 53.371094 16.15625 55.242188 C 13.816406 53.136719 10.355469 52.800781 7.863281 52.425781 C 7.425781 52.359375 7.191406 52.714844 7.269531 53.0625 Z M 7.269531 53.0625 " fill-opacity="1" fill-rule="nonzero"></path><g clip-path="url(#6114efa34c)"><path d="M 13.246094 17.820312 C 17.753906 16.398438 18.160156 13.390625 18.160156 8.554688 C 18.160156 7.5625 17.988281 7.460938 17.226562 7.621094 C 12.140625 8.6875 10.097656 13.367188 11.972656 17.375 C 12.277344 18.023438 12.652344 18.003906 13.246094 17.820312 Z M 13.246094 17.820312 " fill-opacity="1" fill-rule="nonzero"></path></g><path d="M 2.601562 25.644531 C 0.660156 28.507812 0.0976562 31.410156 0.769531 33.789062 C 1.445312 36.152344 3.347656 37.941406 5.789062 38.410156 C 8.226562 38.878906 10.121094 38.121094 11.289062 36.585938 C 12.460938 35.042969 12.929688 32.753906 12.332031 30.136719 C 12.207031 29.605469 11.792969 29.628906 11.523438 29.808594 C 9.714844 30.996094 8.222656 31.996094 7.140625 33.578125 C 7.054688 30.433594 4.917969 27.695312 3.472656 25.632812 C 3.214844 25.269531 2.804688 25.34375 2.601562 25.644531 Z M 2.601562 25.644531 " fill-opacity="1" fill-rule="nonzero"></path><g clip-path="url(#5cbfc2f080)"><path d="M 17.238281 63.472656 C 19.480469 66.109375 22.128906 67.433594 24.605469 67.425781 C 27.0625 67.410156 29.300781 66.058594 30.410156 63.839844 C 31.519531 61.621094 31.292969 59.59375 30.128906 58.058594 C 28.949219 56.515625 26.878906 55.445312 24.1875 55.320312 C 23.640625 55.296875 23.554688 55.703125 23.652344 56.011719 C 24.308594 58.070312 24.875 59.777344 26.113281 61.238281 C 23.054688 60.472656 19.84375 61.800781 17.464844 62.628906 C 17.042969 62.78125 17.003906 63.195312 17.238281 63.472656 Z M 17.238281 63.472656 " fill-opacity="1" fill-rule="nonzero"></path></g></svg>
            