<svg fill="#9ca3af"  xmlns="http://www.w3.org/2000/svg" viewBox="0 0 75 74.999997"><defs><clipPath id="4630d64030"><path d="M 2.53125 24 L 16 24 L 16 38 L 2.53125 38 Z M 2.53125 24 " clip-rule="nonzero"></path></clipPath><clipPath id="25c9f9d673"><path d="M 59 23 L 72.28125 23 L 72.28125 37 L 59 37 Z M 59 23 " clip-rule="nonzero"></path></clipPath><clipPath id="d12969dec5"><path d="M 2.53125 39 L 72.28125 39 L 72.28125 75 L 2.53125 75 Z M 2.53125 39 " clip-rule="nonzero"></path></clipPath></defs><g clip-path="url(#4630d64030)"><path d="M 8.820312 24.917969 L 8.835938 24.917969 C 9.246094 24.917969 9.648438 24.957031 10.046875 25.035156 C 10.445312 25.117188 10.835938 25.234375 11.210938 25.390625 C 11.585938 25.546875 11.945312 25.738281 12.285156 25.964844 C 12.621094 26.191406 12.9375 26.449219 13.222656 26.738281 C 13.511719 27.027344 13.769531 27.34375 13.996094 27.679688 C 14.222656 28.019531 14.414062 28.378906 14.570312 28.757812 C 14.726562 29.132812 14.84375 29.523438 14.921875 29.925781 C 15 30.324219 15.042969 30.730469 15.042969 31.136719 L 15.042969 31.15625 C 15.042969 31.5625 15 31.96875 14.921875 32.367188 C 14.84375 32.769531 14.726562 33.15625 14.570312 33.535156 C 14.414062 33.914062 14.222656 34.269531 13.996094 34.609375 C 13.769531 34.949219 13.511719 35.265625 13.222656 35.554688 C 12.9375 35.84375 12.621094 36.101562 12.285156 36.328125 C 11.945312 36.554688 11.585938 36.746094 11.210938 36.902344 C 10.835938 37.058594 10.445312 37.175781 10.046875 37.257812 C 9.648438 37.335938 9.246094 37.375 8.835938 37.375 L 8.820312 37.375 C 8.414062 37.375 8.007812 37.335938 7.609375 37.257812 C 7.210938 37.175781 6.820312 37.058594 6.445312 36.902344 C 6.070312 36.746094 5.710938 36.554688 5.375 36.328125 C 5.035156 36.101562 4.722656 35.84375 4.433594 35.554688 C 4.144531 35.265625 3.886719 34.949219 3.660156 34.609375 C 3.433594 34.269531 3.246094 33.914062 3.089844 33.535156 C 2.933594 33.15625 2.816406 32.769531 2.734375 32.367188 C 2.65625 31.96875 2.617188 31.5625 2.617188 31.15625 L 2.617188 31.136719 C 2.617188 30.730469 2.65625 30.324219 2.734375 29.925781 C 2.816406 29.523438 2.933594 29.132812 3.089844 28.757812 C 3.246094 28.378906 3.433594 28.019531 3.660156 27.679688 C 3.886719 27.34375 4.144531 27.027344 4.433594 26.738281 C 4.722656 26.449219 5.035156 26.191406 5.375 25.964844 C 5.710938 25.738281 6.070312 25.546875 6.445312 25.390625 C 6.820312 25.234375 7.210938 25.117188 7.609375 25.035156 C 8.007812 24.957031 8.414062 24.917969 8.820312 24.917969 Z M 8.820312 24.917969 " fill-opacity="1" fill-rule="nonzero"></path></g><path d="M 36.15625 0 L 36.171875 0 C 36.578125 0 36.984375 0.0390625 37.382812 0.121094 C 37.78125 0.199219 38.171875 0.316406 38.546875 0.472656 C 38.921875 0.628906 39.28125 0.820312 39.617188 1.046875 C 39.957031 1.273438 40.269531 1.53125 40.558594 1.820312 C 40.847656 2.109375 41.105469 2.425781 41.332031 2.765625 C 41.558594 3.105469 41.75 3.460938 41.902344 3.839844 C 42.058594 4.21875 42.175781 4.605469 42.257812 5.007812 C 42.335938 5.40625 42.375 5.8125 42.375 6.21875 L 42.375 6.238281 C 42.375 6.644531 42.335938 7.050781 42.257812 7.453125 C 42.175781 7.851562 42.058594 8.242188 41.902344 8.617188 C 41.75 8.996094 41.558594 9.355469 41.332031 9.695312 C 41.105469 10.035156 40.847656 10.347656 40.558594 10.636719 C 40.269531 10.925781 39.957031 11.183594 39.617188 11.410156 C 39.28125 11.636719 38.921875 11.828125 38.546875 11.984375 C 38.171875 12.140625 37.78125 12.257812 37.382812 12.339844 C 36.984375 12.417969 36.578125 12.457031 36.171875 12.457031 L 36.15625 12.457031 C 35.746094 12.457031 35.34375 12.417969 34.945312 12.339844 C 34.546875 12.257812 34.15625 12.140625 33.78125 11.984375 C 33.40625 11.828125 33.046875 11.636719 32.707031 11.410156 C 32.371094 11.183594 32.054688 10.925781 31.769531 10.636719 C 31.480469 10.347656 31.222656 10.035156 30.996094 9.695312 C 30.769531 9.355469 30.578125 8.996094 30.421875 8.617188 C 30.265625 8.242188 30.148438 7.851562 30.070312 7.453125 C 29.992188 7.050781 29.953125 6.644531 29.953125 6.238281 L 29.953125 6.21875 C 29.953125 5.8125 29.992188 5.40625 30.070312 5.007812 C 30.148438 4.605469 30.265625 4.21875 30.421875 3.839844 C 30.578125 3.460938 30.769531 3.105469 30.996094 2.765625 C 31.222656 2.425781 31.480469 2.109375 31.769531 1.820312 C 32.054688 1.53125 32.371094 1.273438 32.707031 1.046875 C 33.046875 0.820312 33.40625 0.628906 33.78125 0.472656 C 34.15625 0.316406 34.546875 0.199219 34.945312 0.121094 C 35.34375 0.0390625 35.746094 0 36.15625 0 Z M 36.15625 0 " fill-opacity="1" fill-rule="nonzero"></path><g clip-path="url(#25c9f9d673)"><path d="M 65.976562 23.671875 L 65.992188 23.671875 C 66.398438 23.671875 66.804688 23.710938 67.203125 23.789062 C 67.601562 23.871094 67.992188 23.988281 68.367188 24.144531 C 68.742188 24.300781 69.101562 24.492188 69.4375 24.71875 C 69.777344 24.945312 70.089844 25.203125 70.378906 25.492188 C 70.667969 25.78125 70.925781 26.097656 71.152344 26.4375 C 71.378906 26.773438 71.566406 27.132812 71.722656 27.511719 C 71.878906 27.886719 71.996094 28.277344 72.078125 28.679688 C 72.15625 29.078125 72.195312 29.484375 72.195312 29.890625 L 72.195312 29.910156 C 72.195312 30.316406 72.15625 30.722656 72.078125 31.121094 C 71.996094 31.523438 71.878906 31.914062 71.722656 32.289062 C 71.566406 32.667969 71.378906 33.023438 71.152344 33.363281 C 70.925781 33.703125 70.667969 34.019531 70.378906 34.308594 C 70.089844 34.597656 69.777344 34.855469 69.4375 35.082031 C 69.101562 35.308594 68.742188 35.5 68.367188 35.65625 C 67.992188 35.8125 67.601562 35.929688 67.203125 36.011719 C 66.804688 36.089844 66.398438 36.128906 65.992188 36.128906 L 65.976562 36.128906 C 65.566406 36.128906 65.164062 36.089844 64.765625 36.011719 C 64.367188 35.929688 63.976562 35.8125 63.601562 35.65625 C 63.226562 35.5 62.867188 35.308594 62.527344 35.082031 C 62.191406 34.855469 61.875 34.597656 61.589844 34.308594 C 61.300781 34.019531 61.042969 33.703125 60.816406 33.363281 C 60.589844 33.023438 60.398438 32.667969 60.242188 32.289062 C 60.085938 31.914062 59.96875 31.523438 59.890625 31.121094 C 59.8125 30.722656 59.769531 30.316406 59.769531 29.910156 L 59.769531 29.890625 C 59.769531 29.484375 59.8125 29.078125 59.890625 28.679688 C 59.96875 28.277344 60.085938 27.886719 60.242188 27.511719 C 60.398438 27.132812 60.589844 26.773438 60.816406 26.4375 C 61.042969 26.097656 61.300781 25.78125 61.589844 25.492188 C 61.875 25.203125 62.191406 24.945312 62.527344 24.71875 C 62.867188 24.492188 63.226562 24.300781 63.601562 24.144531 C 63.976562 23.988281 64.367188 23.871094 64.765625 23.789062 C 65.164062 23.710938 65.566406 23.671875 65.976562 23.671875 Z M 65.976562 23.671875 " fill-opacity="1" fill-rule="nonzero"></path></g><path d="M 7.824219 19.542969 C 7.464844 20.167969 7.121094 20.804688 6.796875 21.453125 L 9.023438 22.5625 C 9.320312 21.964844 9.636719 21.375 9.972656 20.796875 C 12.277344 16.839844 15.285156 13.535156 19.007812 10.875 L 20.574219 14.011719 L 26.386719 5.289062 L 16.214844 5.289062 L 17.882812 8.628906 C 13.730469 11.523438 10.375 15.164062 7.824219 19.542969 Z M 7.824219 19.542969 " fill-opacity="1" fill-rule="nonzero"></path><path d="M 65.722656 20.042969 L 64.5 10.074219 L 61.265625 12.222656 C 57.269531 8.308594 52.597656 5.542969 47.25 3.925781 L 46.535156 6.3125 C 51.3125 7.753906 55.519531 10.195312 59.148438 13.625 L 56.480469 15.394531 Z M 65.722656 20.042969 " fill-opacity="1" fill-rule="nonzero"></path><path d="M 22.496094 36.128906 C 22.496094 37.109375 22.589844 38.082031 22.78125 39.046875 C 22.972656 40.007812 23.257812 40.945312 23.632812 41.851562 C 24.003906 42.757812 24.464844 43.621094 25.007812 44.433594 C 25.554688 45.25 26.171875 46.007812 26.863281 46.699219 C 27.554688 47.394531 28.308594 48.015625 29.121094 48.558594 C 29.9375 49.105469 30.796875 49.566406 31.699219 49.941406 C 32.605469 50.316406 33.539062 50.601562 34.496094 50.792969 C 35.457031 50.984375 36.425781 51.078125 37.40625 51.078125 C 38.386719 51.078125 39.355469 50.984375 40.316406 50.792969 C 41.273438 50.601562 42.207031 50.316406 43.113281 49.941406 C 44.015625 49.566406 44.875 49.105469 45.691406 48.558594 C 46.503906 48.015625 47.257812 47.394531 47.949219 46.699219 C 48.640625 46.007812 49.257812 45.25 49.804688 44.433594 C 50.347656 43.621094 50.808594 42.757812 51.179688 41.851562 C 51.554688 40.945312 51.839844 40.007812 52.03125 39.046875 C 52.222656 38.082031 52.316406 37.109375 52.316406 36.128906 C 52.316406 35.148438 52.222656 34.175781 52.03125 33.214844 C 51.839844 32.25 51.554688 31.316406 51.179688 30.410156 C 50.808594 29.5 50.347656 28.640625 49.804688 27.824219 C 49.257812 27.007812 48.640625 26.253906 47.949219 25.558594 C 47.257812 24.863281 46.503906 24.246094 45.691406 23.699219 C 44.875 23.152344 44.015625 22.691406 43.113281 22.316406 C 42.207031 21.941406 41.273438 21.65625 40.316406 21.464844 C 39.355469 21.273438 38.386719 21.179688 37.40625 21.179688 C 36.425781 21.179688 35.457031 21.273438 34.496094 21.464844 C 33.539062 21.65625 32.605469 21.941406 31.699219 22.316406 C 30.796875 22.691406 29.9375 23.152344 29.121094 23.699219 C 28.308594 24.246094 27.554688 24.863281 26.863281 25.558594 C 26.171875 26.253906 25.554688 27.007812 25.007812 27.824219 C 24.464844 28.640625 24.003906 29.5 23.632812 30.410156 C 23.257812 31.316406 22.972656 32.25 22.78125 33.214844 C 22.589844 34.175781 22.496094 35.148438 22.496094 36.128906 Z M 30.6875 37.617188 L 35.070312 40.839844 L 44.972656 28.925781 L 46.878906 30.519531 L 36.230469 43.335938 C 36.128906 43.457031 36.007812 43.554688 35.871094 43.632812 C 35.730469 43.707031 35.582031 43.753906 35.425781 43.773438 C 35.269531 43.792969 35.113281 43.78125 34.960938 43.742188 C 34.808594 43.703125 34.667969 43.636719 34.542969 43.542969 L 29.214844 39.625 Z M 30.6875 37.617188 " fill-opacity="1" fill-rule="nonzero"></path><g clip-path="url(#d12969dec5)"><path d="M 3.273438 46.65625 L 5.535156 46.65625 C 5.890625 46.664062 6.238281 46.722656 6.578125 46.84375 C 6.917969 46.960938 7.226562 47.128906 7.511719 47.34375 C 7.796875 47.5625 8.039062 47.820312 8.242188 48.113281 C 8.445312 48.410156 8.597656 48.730469 8.699219 49.074219 C 9.21875 50.707031 9.871094 52.285156 10.664062 53.804688 C 10.835938 54.117188 10.957031 54.453125 11.023438 54.804688 C 11.089844 55.160156 11.097656 55.511719 11.050781 55.867188 C 11.003906 56.226562 10.902344 56.5625 10.746094 56.886719 C 10.589844 57.210938 10.386719 57.5 10.136719 57.757812 L 8.53125 59.363281 C 11.074219 63.140625 14.230469 66.296875 18 68.835938 L 19.609375 67.230469 C 19.867188 66.980469 20.15625 66.777344 20.480469 66.621094 C 20.804688 66.464844 21.144531 66.363281 21.5 66.316406 C 21.855469 66.269531 22.207031 66.277344 22.5625 66.34375 C 22.914062 66.410156 23.246094 66.53125 23.5625 66.703125 C 25.082031 67.496094 26.65625 68.148438 28.289062 68.667969 C 28.632812 68.769531 28.953125 68.917969 29.25 69.121094 C 29.542969 69.324219 29.800781 69.566406 30.019531 69.851562 C 30.238281 70.136719 30.402344 70.449219 30.523438 70.785156 C 30.640625 71.125 30.703125 71.472656 30.707031 71.832031 L 30.707031 74.09375 C 35.171875 74.980469 39.640625 74.980469 44.105469 74.09375 L 44.105469 71.832031 C 44.109375 71.472656 44.171875 71.125 44.289062 70.785156 C 44.40625 70.449219 44.574219 70.136719 44.792969 69.851562 C 45.011719 69.566406 45.265625 69.324219 45.5625 69.121094 C 45.859375 68.917969 46.179688 68.769531 46.523438 68.667969 C 48.152344 68.148438 49.730469 67.496094 51.25 66.703125 C 51.566406 66.53125 51.898438 66.410156 52.25 66.34375 C 52.605469 66.277344 52.957031 66.269531 53.3125 66.316406 C 53.667969 66.363281 54.007812 66.464844 54.332031 66.621094 C 54.65625 66.777344 54.945312 66.980469 55.203125 67.230469 L 56.8125 68.835938 C 60.582031 66.296875 63.738281 63.140625 66.28125 59.363281 L 64.675781 57.757812 C 64.425781 57.5 64.222656 57.210938 64.066406 56.886719 C 63.910156 56.5625 63.808594 56.226562 63.761719 55.867188 C 63.714844 55.511719 63.722656 55.160156 63.789062 54.804688 C 63.855469 54.453125 63.976562 54.117188 64.148438 53.804688 C 64.941406 52.285156 65.59375 50.707031 66.113281 49.074219 C 66.214844 48.730469 66.367188 48.410156 66.570312 48.113281 C 66.773438 47.820312 67.015625 47.5625 67.300781 47.34375 C 67.585938 47.128906 67.894531 46.960938 68.234375 46.84375 C 68.574219 46.726562 68.921875 46.664062 69.277344 46.65625 L 71.539062 46.65625 C 71.972656 44.445312 72.191406 42.214844 72.195312 39.960938 L 59.613281 39.960938 C 59.535156 40.636719 59.425781 41.304688 59.285156 41.972656 C 59.148438 42.636719 58.980469 43.296875 58.78125 43.945312 C 58.582031 44.597656 58.355469 45.238281 58.097656 45.867188 C 57.839844 46.496094 57.558594 47.113281 57.242188 47.714844 C 56.929688 48.320312 56.59375 48.910156 56.226562 49.480469 C 55.859375 50.054688 55.46875 50.609375 55.050781 51.144531 C 54.636719 51.683594 54.195312 52.199219 53.734375 52.695312 C 53.269531 53.191406 52.785156 53.667969 52.277344 54.121094 C 51.769531 54.574219 51.246094 55 50.699219 55.40625 C 50.15625 55.8125 49.59375 56.191406 49.011719 56.542969 C 48.433594 56.894531 47.835938 57.222656 47.226562 57.519531 C 46.617188 57.820312 45.996094 58.089844 45.363281 58.332031 C 44.730469 58.574219 44.085938 58.789062 43.433594 58.972656 C 42.777344 59.152344 42.117188 59.308594 41.453125 59.429688 C 40.785156 59.554688 40.113281 59.644531 39.4375 59.707031 C 38.761719 59.769531 38.085938 59.800781 37.40625 59.800781 C 36.726562 59.800781 36.050781 59.769531 35.375 59.707031 C 34.699219 59.644531 34.027344 59.554688 33.359375 59.429688 C 32.695312 59.308594 32.035156 59.152344 31.378906 58.972656 C 30.726562 58.789062 30.082031 58.574219 29.449219 58.332031 C 28.816406 58.089844 28.195312 57.820312 27.585938 57.519531 C 26.976562 57.222656 26.378906 56.894531 25.800781 56.542969 C 25.21875 56.191406 24.65625 55.8125 24.113281 55.40625 C 23.566406 55 23.042969 54.574219 22.535156 54.121094 C 22.027344 53.667969 21.542969 53.191406 21.078125 52.695312 C 20.617188 52.199219 20.175781 51.683594 19.761719 51.144531 C 19.34375 50.609375 18.953125 50.054688 18.585938 49.480469 C 18.21875 48.910156 17.882812 48.320312 17.570312 47.714844 C 17.253906 47.113281 16.972656 46.496094 16.714844 45.867188 C 16.457031 45.238281 16.230469 44.597656 16.03125 43.945312 C 15.832031 43.296875 15.664062 42.636719 15.527344 41.972656 C 15.386719 41.304688 15.277344 40.636719 15.199219 39.960938 L 2.617188 39.960938 C 2.621094 42.214844 2.839844 44.445312 3.273438 46.65625 Z M 3.273438 46.65625 " fill-opacity="1" fill-rule="nonzero"></path></g></svg>
